<?xml version="1.0" encoding="utf-8"?>
<!-- Generator: Adobe Illustrator 26.3.1, SVG Export Plug-In . SVG Version: 6.00 Build 0)  -->
<svg version="1.1" id="Layer_1" xmlns="http://www.w3.org/2000/svg" xmlns:xlink="http://www.w3.org/1999/xlink" x="0px" y="0px"
	 viewBox="0 0 64 64" style="enable-background:new 0 0 64 64;" xml:space="preserve">
<style type="text/css">
	.st0{fill-rule:evenodd;clip-rule:evenodd;fill:#FFA97A;}
	.st1{fill:#FFA97A;}
</style>
<g>
	<path class="st0" d="M32,16.6c-8.1,0-14.6,6.7-14.6,14.8c0,6.6,4.2,12.1,9.9,14c0.7,0.2,1-0.4,1-0.7c0-0.4,0-1.5,0-2.8
		c-4.1,0.9-4.9-1.7-4.9-1.7c-0.6-1.7-1.6-2.2-1.6-2.2c-1.3-0.9,0.1-0.9,0.1-0.9c1.5,0.1,2.2,1.5,2.2,1.5c1.3,2.3,3.4,1.6,4.3,1.3
		c0.1-1,0.5-1.6,0.9-2c-3.2-0.4-6.7-1.6-6.7-7.3c0-1.6,0.6-3,1.5-4c-0.2-0.4-0.6-1.9,0.2-4c0,0,1.2-0.4,4,1.5
		c1.2-0.4,2.4-0.5,3.6-0.5c1.2,0,2.5,0.2,3.6,0.5c2.8-1.9,4-1.5,4-1.5c0.8,2.1,0.3,3.5,0.2,4c0.9,1.1,1.5,2.3,1.5,4
		c0,5.7-3.4,6.9-6.7,7.3c0.6,0.5,1,1.4,1,2.7c0,2,0,3.6,0,4.1c0,0.4,0.3,0.9,1,0.7c5.7-2,9.9-7.5,9.9-14
		C46.5,23.3,40.1,16.6,32,16.6z"/>
	<path class="st1" d="M22.9,37.9c0,0.1-0.2,0.1-0.3,0.1c-0.1-0.1-0.2-0.2-0.1-0.2c0-0.1,0.2-0.1,0.3-0.1
		C22.9,37.7,23,37.9,22.9,37.9L22.9,37.9z"/>
	<path class="st1" d="M23.6,38.6c-0.1,0.1-0.2,0-0.3-0.1c-0.1-0.1-0.1-0.3,0-0.3c0.1-0.1,0.2,0,0.3,0.1
		C23.6,38.4,23.7,38.5,23.6,38.6L23.6,38.6z"/>
	<path class="st1" d="M24.1,39.4c-0.1,0.1-0.3,0-0.4-0.1s-0.1-0.3,0-0.4c0.1-0.1,0.3,0,0.4,0.1C24.2,39.2,24.2,39.4,24.1,39.4
		L24.1,39.4z"/>
	<path class="st1" d="M24.9,40.2c-0.1,0.1-0.3,0.1-0.4-0.1c-0.1-0.1-0.2-0.3-0.1-0.4s0.3-0.1,0.4,0.1C25,40,25,40.1,24.9,40.2
		L24.9,40.2z"/>
	<path class="st1" d="M26,40.7c0,0.1-0.2,0.2-0.4,0.1c-0.2-0.1-0.3-0.2-0.3-0.3c0-0.1,0.2-0.2,0.4-0.1C25.9,40.5,26,40.6,26,40.7
		L26,40.7z"/>
	<path class="st1" d="M27.2,40.8c0,0.1-0.1,0.2-0.3,0.3c-0.2,0-0.3-0.1-0.3-0.2c0-0.1,0.1-0.2,0.3-0.3C27,40.6,27.2,40.6,27.2,40.8
		L27.2,40.8z"/>
	<path class="st1" d="M28.3,40.6c0,0.1-0.1,0.3-0.3,0.3c-0.2,0-0.4,0-0.4-0.2c0-0.1,0.1-0.3,0.3-0.3C28.1,40.5,28.3,40.5,28.3,40.6
		L28.3,40.6z"/>
</g>
</svg>
