<?xml version="1.0" encoding="utf-8"?>
<!-- Generator: Adobe Illustrator 26.3.1, SVG Export Plug-In . SVG Version: 6.00 Build 0)  -->
<svg version="1.1" id="Layer_1" xmlns="http://www.w3.org/2000/svg" xmlns:xlink="http://www.w3.org/1999/xlink" x="0px" y="0px"
	 viewBox="0 0 64 64" style="enable-background:new 0 0 64 64;" xml:space="preserve">
<style type="text/css">
	.st0{fill-rule:evenodd;clip-rule:evenodd;fill:#FFFFFF;}
	.st1{fill:#FFFFFF;}
</style>
<g>
	<path class="st0" d="M31.3,17.9c-7.1,0-12.7,5.7-12.7,12.7c0,5.6,3.7,10.4,8.6,12.1c0.7,0.2,0.9-0.3,0.9-0.7s0-1.3,0-2.4
		c-3.6,0.8-4.3-1.5-4.3-1.5c-0.6-1.5-1.4-1.9-1.4-1.9c-1.2-0.8,0.1-0.8,0.1-0.8c1.3,0.1,1.9,1.3,1.9,1.3c1.2,2,3,1.4,3.7,1.1
		c0.1-0.8,0.4-1.4,0.8-1.7c-2.8-0.3-5.8-1.4-5.8-6.3c0-1.4,0.5-2.5,1.3-3.4c-0.2-0.3-0.6-1.6,0.2-3.4c0,0,1.1-0.3,3.5,1.3
		c1.1-0.3,2.1-0.4,3.2-0.5c1.1,0,2.2,0.2,3.2,0.5c2.4-1.6,3.5-1.3,3.5-1.3c0.8,1.8,0.3,3,0.2,3.4c0.8,0.9,1.3,2,1.3,3.4
		c0,4.9-3,6-5.8,6.3c0.5,0.4,0.9,1.1,0.9,2.4c0,1.7,0,3.1,0,3.5c0,0.3,0.3,0.8,0.9,0.7c5-1.7,8.6-6.5,8.6-12.1
		C44,23.8,38.4,17.9,31.3,17.9z"/>
	<path class="st1" d="M23.4,36.3c0,0.1-0.2,0.1-0.3,0.1c0-0.1-0.1-0.1,0-0.1C23.1,36.2,23.3,36.2,23.4,36.3
		C23.4,36.2,23.5,36.3,23.4,36.3L23.4,36.3z"/>
	<path class="st1" d="M23.9,36.9c-0.1,0.1-0.2,0-0.3-0.1c-0.1-0.1-0.1-0.2,0-0.2c0.1-0.1,0.2,0,0.3,0.1C23.9,36.7,24,36.8,23.9,36.9
		L23.9,36.9z"/>
	<path class="st1" d="M24.4,37.6c-0.1,0.1-0.3,0-0.3-0.1c0-0.1-0.1-0.2,0-0.3c0.1-0.1,0.3,0,0.3,0.1C24.5,37.5,24.5,37.6,24.4,37.6
		L24.4,37.6z"/>
	<path class="st1" d="M25.1,38.3c-0.1,0.1-0.3,0.1-0.3-0.1c-0.1-0.1-0.2-0.2-0.1-0.3c0.1-0.1,0.3-0.1,0.3,0.1
		C25.1,38.2,25.1,38.2,25.1,38.3L25.1,38.3z"/>
	<path class="st1" d="M26.1,38.8c0,0.1-0.2,0.2-0.3,0.1c-0.2-0.1-0.3-0.2-0.3-0.2c0-0.1,0.2-0.2,0.3-0.1
		C26,38.5,26.1,38.6,26.1,38.8L26.1,38.8z"/>
	<path class="st1" d="M27.1,38.9c0,0.1-0.1,0.2-0.3,0.2c-0.2,0-0.3-0.1-0.3-0.2s0.1-0.2,0.3-0.2C26.9,38.6,27.1,38.7,27.1,38.9
		L27.1,38.9z"/>
	<path class="st1" d="M28.1,38.7c0,0.1-0.1,0.2-0.3,0.2c-0.2,0-0.3,0-0.3-0.2c0-0.1,0.1-0.2,0.3-0.2C27.9,38.5,28.1,38.5,28.1,38.7
		L28.1,38.7z"/>
</g>
</svg>
