<?xml version="1.0" encoding="utf-8"?>
<!-- Generator: Adobe Illustrator 26.3.1, SVG Export Plug-In . SVG Version: 6.00 Build 0)  -->
<svg version="1.1" id="Layer_1" xmlns="http://www.w3.org/2000/svg" xmlns:xlink="http://www.w3.org/1999/xlink" x="0px" y="0px"
	 viewBox="0 0 64 64" style="enable-background:new 0 0 64 64;" xml:space="preserve">
<style type="text/css">
	.st0{fill:none;stroke:#FFA97A;stroke-width:2;stroke-miterlimit:10;}
</style>
<g>
	<path class="st0" d="M21.9,16.2c1.3,0.3,2.3,1,2.7,2.3c0.5,1.7-0.5,3.4-2.3,3.9c-1.7,0.5-3.6-0.5-4.1-2.2s0.5-3.4,2.2-3.9
		c0.2,0,0.3-0.1,0.5-0.1C21.3,16.2,21.6,16.2,21.9,16.2z"/>
	<path class="st0" d="M33.7,42.5c-1.9,0-3.8,0-5.6,0c0-5.8,0-11.7,0-17.5c1.8,0,3.6,0,5.5,0c0,0.8,0,1.5,0,2.4
		c1.7-2.4,3.9-3.1,6.6-2.8c3.2,0.3,5,1.9,5.5,5c0.2,1,0.3,2,0.3,2.9c0,3.3,0,6.6,0,10c-1.9,0-3.8,0-5.7,0c0-0.2,0-0.5,0-0.7
		c0-3,0-5.9,0-8.9c0-0.4,0-0.8-0.1-1.1c-0.3-1.6-1.1-2.4-2.6-2.5c-1.8-0.1-3,0.7-3.4,2.3c-0.2,0.8-0.3,1.6-0.3,2.5
		C33.6,36.8,33.7,39.7,33.7,42.5z"/>
	<path class="st0" d="M18.6,25c1.9,0,3.7,0,5.6,0c0,5.8,0,11.7,0,17.5c-1.9,0-3.7,0-5.6,0C18.6,36.7,18.6,30.9,18.6,25z"/>
</g>
</svg>
