<?xml version="1.0" encoding="utf-8"?>
<!-- Generator: Adobe Illustrator 26.3.1, SVG Export Plug-In . SVG Version: 6.00 Build 0)  -->
<svg version="1.1" id="Layer_1" xmlns="http://www.w3.org/2000/svg" xmlns:xlink="http://www.w3.org/1999/xlink" x="0px" y="0px"
	 viewBox="0 0 64 64" style="enable-background:new 0 0 64 64;" xml:space="preserve">
<style type="text/css">
	.st0{fill:none;stroke:#FFA97A;stroke-width:2;stroke-miterlimit:10;}
</style>
<g>
	<path class="st0" d="M21.7,13.6c0.1,0,0.1,0,0.2,0c1.2,0.3,2.2,1,2.6,2.3c0.5,1.7-0.5,3.4-2.3,3.9c-1.7,0.5-3.6-0.5-4.1-2.2
		s0.5-3.4,2.2-3.9c0.2,0,0.3-0.1,0.5-0.1L21.7,13.6z"/>
	<path class="st0" d="M32.8,43.8h-4c-0.4,0-0.8-0.4-0.8-0.8V25.6c0-0.4,0.4-0.8,0.8-0.8h3.9l0.8,1.7l1-0.5c0.1,0,2-0.6,2-0.6
		c1-0.1,3.5,0.2,1.6,0c-1.3-0.1,2.3,0.1,3.4,0.6c2.4,1.1,3.2,2.6,4.1,4.8c0,0.1-0.1-0.1,0,0c0.2,1,0.4,2.1,0.4,3V43
		c0,0.4-0.4,0.8-0.8,0.8h-4.9c0-0.2,0-0.5,0-0.7c0-3,0-5.9,0-8.9c0-0.4,0-0.8-0.1-1.1c-0.3-1.6-1.1-2.4-2.6-2.5
		c-1.8-0.1-3,0.7-3.4,2.3c-0.2,0.8-0.3,1.6-0.3,2.5c-0.3,2.4-0.2,5-0.2,7.6C33.6,43.4,33.2,43.8,32.8,43.8z"/>
	<path class="st0" d="M19.8,24.8h3c0.2,0,0.8,0.2,1,0.4c0,0,0.3,0.4,0.3,1.1V43c0,0.4-0.4,0.8-0.8,0.8h-4c-0.4,0-0.8-0.4-0.8-0.8
		l0-16.8c0-0.4,0.1-0.7,0.3-1l0,0C19.1,25,19.4,24.8,19.8,24.8z"/>
</g>
</svg>
