<?xml version="1.0" encoding="utf-8"?>
<!-- Generator: Adobe Illustrator 26.3.1, SVG Export Plug-In . SVG Version: 6.00 Build 0)  -->
<svg version="1.1" id="Layer_1" xmlns="http://www.w3.org/2000/svg" xmlns:xlink="http://www.w3.org/1999/xlink" x="0px" y="0px"
	 viewBox="0 0 64 64" style="enable-background:new 0 0 64 64;" xml:space="preserve">
<style type="text/css">
	.st0{fill:#FFFFFF;}
</style>
<g>
	<path class="st0" d="M22.5,16.9c1.2,0.3,2.2,1,2.5,2.2c0.5,1.7-0.5,3.3-2.3,3.8c-1.7,0.5-3.5-0.5-4-2.1c-0.5-1.7,0.5-3.3,2.2-3.8
		C21.8,16.8,22.4,16.9,22.5,16.9z"/>
	<path class="st0" d="M32.9,42.6h-3.8c-0.4,0-0.8-0.4-0.8-0.8V25.9c0-0.4,0,0,0-0.4h4.5l0.1,0.8c0,0,2.6-0.6,5.6-0.4
		c0.8,0.1,1.4,0.3,1.4,0.3s5.2,1.4,5.5,6.6v9c0,0.4-0.3,0.8-0.8,0.8H40c0-0.2,0-0.5,0-0.7c0-2.9,0-5.7,0-8.7c0-0.4,0-0.8-0.1-1.1
		c-0.3-1.6-1.1-2.3-2.4-2.4c-1.7-0.1-2.8,0.7-3.2,2.2c-0.2,0.8-0.3,1.6-0.3,2.4c-0.3,2.3-0.2,4.9-0.2,7.4
		C33.7,42.2,33.3,42.6,32.9,42.6z"/>
	<path class="st0" d="M19.9,25.5h3.9c0.4,0,0.8,0.4,0.8,0.8v15.5c0,0.4-0.4,0.8-0.8,0.8h-3.9c-0.4,0-0.8-0.4-0.8-0.8V26.3
		C19.1,25.9,19.5,25.5,19.9,25.5z"/>
</g>
</svg>
