<svg width="38" height="32" viewBox="0 0 38 32" fill="none" xmlns="http://www.w3.org/2000/svg">
<path d="M37.3187 2.5836C37.3189 2.28921 37.241 2.00003 37.0931 1.7455C36.9452 1.49098 36.7325 1.28021 36.4766 1.13465C36.2207 0.989088 35.9308 0.913945 35.6364 0.916869C35.3421 0.919794 35.0537 1.00068 34.8008 1.1513C33.8253 1.73194 32.775 2.1766 31.6791 2.47296C30.1141 1.13002 28.118 0.395134 26.0558 0.402645C23.7934 0.405249 21.6206 1.28697 19.9961 2.86161C18.3717 4.43626 17.4228 6.58058 17.3497 8.84178C12.8897 8.13055 8.84745 5.80265 5.99381 2.30201C5.82187 2.0934 5.60229 1.9292 5.35358 1.82326C5.10487 1.71731 4.83433 1.67272 4.56478 1.69326C4.29538 1.71544 4.03543 1.80292 3.80743 1.94811C3.57942 2.09331 3.39022 2.29186 3.25618 2.52659C2.56872 3.72628 2.17389 5.07119 2.10376 6.45211C2.03362 7.83302 2.29016 9.21101 2.85253 10.4742L2.84928 10.4774C2.59652 10.6331 2.38793 10.851 2.24345 11.1103C2.09897 11.3697 2.02344 11.6617 2.02408 11.9586C2.02102 12.2034 2.0357 12.4482 2.06803 12.691C2.23825 14.7881 3.16766 16.7511 4.68196 18.2118C4.57923 18.4075 4.51653 18.6217 4.49753 18.8419C4.47853 19.0622 4.5036 19.2839 4.57128 19.4944C5.23147 21.5513 6.63544 23.2878 8.50846 24.3641C6.60553 25.1 4.55083 25.3566 2.52538 25.1112C2.1505 25.0642 1.77076 25.146 1.44846 25.3431C1.12615 25.5403 0.88042 25.8411 0.751568 26.1963C0.622715 26.5514 0.618393 26.9398 0.739311 27.2978C0.860228 27.6557 1.09921 27.962 1.41704 28.1662C4.90053 30.4098 8.9565 31.6027 13.1 31.6021C17.7988 31.655 22.3833 30.1535 26.1404 27.3312C29.8975 24.5089 32.6166 20.5241 33.8747 15.9966C34.4631 14.0243 34.7635 11.9774 34.7667 9.91919C34.7667 9.81014 34.7667 9.69784 34.765 9.58554C35.6352 8.6471 36.3093 7.54438 36.7478 6.34204C37.1863 5.1397 37.3804 3.86192 37.3187 2.5836V2.5836ZM31.8076 7.93678C31.5323 8.26235 31.393 8.68144 31.4186 9.10703C31.4349 9.38203 31.4333 9.65869 31.4333 9.91919C31.4298 11.6584 31.1749 13.388 30.6764 15.0543C29.6489 18.9066 27.3584 22.3027 24.1716 24.6986C20.9848 27.0945 17.0861 28.3517 13.1 28.2688C11.6681 28.2693 10.2412 28.101 8.84869 27.7675C10.6244 27.1953 12.2847 26.313 13.7527 25.1617C14.023 24.9488 14.2209 24.6575 14.3191 24.3277C14.4174 23.9979 14.4111 23.6458 14.3013 23.3196C14.1914 22.9935 13.9834 22.7094 13.7056 22.5062C13.4279 22.303 13.0941 22.1908 12.75 22.1848C11.3647 22.1633 10.0419 21.6049 9.06021 20.6272C9.30924 20.58 9.55664 20.5214 9.80241 20.4514C10.1624 20.349 10.4775 20.1283 10.6968 19.825C10.9162 19.5217 11.0271 19.1534 11.0117 18.7794C10.9963 18.4054 10.8555 18.0474 10.6119 17.7632C10.3683 17.479 10.0362 17.285 9.66894 17.2125C8.86484 17.0537 8.10819 16.7116 7.4578 16.2128C6.80742 15.714 6.28082 15.0719 5.91894 14.3365C6.22016 14.3776 6.52329 14.4032 6.82714 14.413C7.18811 14.4185 7.54147 14.309 7.8361 14.1004C8.13074 13.8917 8.35139 13.5948 8.46614 13.2525C8.57611 12.9071 8.57045 12.5353 8.45002 12.1934C8.3296 11.8515 8.10098 11.5582 7.79883 11.358C7.06574 10.8696 6.46523 10.207 6.05109 9.42959C5.63694 8.65215 5.42209 7.78412 5.42578 6.90326C5.42578 6.79259 5.42903 6.68191 5.43554 6.57286C9.17098 10.0566 14.0161 12.1103 19.1172 12.372C19.3747 12.3822 19.6311 12.3337 19.8671 12.2302C20.1031 12.1267 20.3125 11.9709 20.4795 11.7747C20.6448 11.5765 20.7619 11.3427 20.8214 11.0916C20.881 10.8405 20.8815 10.579 20.8229 10.3277C20.7275 9.93002 20.6789 9.52253 20.678 9.11354C20.6795 7.68777 21.2466 6.32083 22.2548 5.31265C23.2629 4.30448 24.6299 3.73743 26.0557 3.73593C26.7892 3.73396 27.5152 3.88409 28.1878 4.17684C28.8604 4.46959 29.4651 4.89859 29.9635 5.43678C30.1558 5.64358 30.3977 5.79777 30.6663 5.88467C30.935 5.97157 31.2214 5.9883 31.4983 5.93326C32.183 5.80002 32.8578 5.62058 33.5182 5.39616C33.0677 6.31778 32.4921 7.17274 31.8076 7.93678V7.93678Z" fill="#FFA97A"/>
</svg>
