<?xml version="1.0" encoding="utf-8"?>
<!-- Generator: Adobe Illustrator 26.3.1, SVG Export Plug-In . SVG Version: 6.00 Build 0)  -->
<svg version="1.1" id="Layer_1" xmlns="http://www.w3.org/2000/svg" xmlns:xlink="http://www.w3.org/1999/xlink" x="0px" y="0px"
	 viewBox="0 0 64 64" style="enable-background:new 0 0 64 64;" xml:space="preserve">
<style type="text/css">
	.st0{fill:#CECECE;}
</style>
<path class="st0" d="M28.5,32c-0.6,0.3-1.3-0.3-3-3.1c-0.8-1.5-1.5-3.1-1.5-3.1s-0.1-0.3-0.3-0.5c-0.3-0.2-0.6-0.3-0.6-0.3l-3.9,0
	c0,0-0.6,0-0.8,0.3c-0.2,0.2,0,0.7,0,0.7s3.1,7.2,6.5,10.8c3.2,3.3,6.8,3.1,6.8,3.1h1.6c0,0,0.5-0.1,0.7-0.3
	c0.2-0.2,0.2-0.7,0.2-0.7s0-2.2,1-2.5c1-0.3,2.3,2.1,3.7,3.1c1,0.7,1.8,0.6,1.8,0.6l3.7-0.1c0,0,1.9-0.1,1-1.6
	c-0.1-0.1-0.5-1.1-2.7-3.1c-2.3-2.1-2-1.8,0.8-5.5c1.7-2.2,2.4-3.6,2.1-4.2c-0.2-0.6-1.4-0.4-1.4-0.4l-4.1,0c0,0-0.3,0-0.5,0.1
	c-0.2,0.1-0.4,0.4-0.4,0.4s-0.7,1.7-1.5,3.2c-1.8,3.1-2.6,3.3-2.9,3.1c-0.7-0.5-0.5-1.8-0.5-2.8c0-3,0.5-4.3-0.9-4.6
	c-0.4-0.1-0.8-0.2-1.9-0.2c-1.5,0-2.7,0-3.4,0.3c-0.5,0.2-0.8,0.7-0.6,0.8c0.3,0,0.9,0.2,1.2,0.6C29,26.8,29,28,29,28
	S29.3,31.6,28.5,32z"/>
</svg>
