<?xml version="1.0" encoding="utf-8"?>
<!-- Generator: Adobe Illustrator 26.3.1, SVG Export Plug-In . SVG Version: 6.00 Build 0)  -->
<svg version="1.1" id="Layer_1" xmlns="http://www.w3.org/2000/svg" xmlns:xlink="http://www.w3.org/1999/xlink" x="0px" y="0px"
	 viewBox="0 0 64 64" style="enable-background:new 0 0 64 64;" xml:space="preserve">
<style type="text/css">
	.st0{fill:#FFFFFF;}
</style>
<path class="st0" d="M27.2,33.4c-0.6,0.3-1.4-0.3-3.2-3.6c-0.9-1.7-1.6-3.6-1.6-3.6s-0.1-0.3-0.3-0.6c-0.3-0.2-0.6-0.3-0.6-0.3h-4.2
	c0,0-0.6,0-0.9,0.3c-0.2,0.2,0,0.8,0,0.8s3.3,8.3,6.9,12.5c3.4,3.8,7.3,3.6,7.3,3.6h1.7c0,0,0.5-0.1,0.7-0.3s0.2-0.8,0.2-0.8
	s0-2.5,1.1-2.9c1.1-0.3,2.5,2.4,3.9,3.6c1.1,0.8,1.9,0.7,1.9,0.7l3.9-0.1c0,0,2-0.1,1.1-1.8c-0.1-0.1-0.5-1.3-2.9-3.6
	c-2.5-2.4-2.1-2.1,0.9-6.4c1.8-2.5,3.1-4.3,2.2-4.9c-0.6-0.5-1.5-0.5-1.5-0.5h-4.4c0,0-0.3,0-0.5,0.1s-0.4,0.5-0.4,0.5
	s-0.7,2-1.6,3.7c-1.9,3.6-2.8,3.8-3.1,3.6c-0.7-0.6-0.5-2.1-0.5-3.2c0-3.5,0.5-5-1-5.3c-0.4-0.1-0.9-0.2-2-0.2c-1.6,0-2.9,0-3.6,0.3
	c-0.3,0.1-0.3-0.1,0.2,0.7c0.2,0.5-0.1-0.3,0.4,0.9c0.3,0.8,0.3,2.2,0.3,2.2S28.1,32.9,27.2,33.4z"/>
</svg>
